<?xml version="1.0" standalone="no"?>
<!DOCTYPE svg PUBLIC "-//W3C//DTD SVG 20010904//EN"
 "http://www.w3.org/TR/2001/REC-SVG-20010904/DTD/svg10.dtd">
<svg version="1.0" xmlns="http://www.w3.org/2000/svg"
 width="260.000000pt" height="260.000000pt" viewBox="0 0 260.000000 260.000000"
 preserveAspectRatio="xMidYMid meet">
<metadata>
Created by potrace 1.11, written by Peter Selinger 2001-2013
</metadata>
<g transform="translate(0.000000,260.000000) scale(0.100000,-0.100000)"
fill="#000000" stroke="none">
<path d="M1150 2593 c-227 -38 -387 -94 -535 -188 -399 -253 -621 -666 -610
-1135 2 -80 6 -156 9 -170 4 -14 9 -38 11 -55 22 -121 87 -293 157 -409 191
-317 498 -534 868 -613 130 -27 382 -25 519 6 441 97 784 392 950 818 56 142
81 300 76 478 -2 77 -6 154 -9 172 -69 419 -323 769 -696 960 -187 96 -338
133 -560 137 -85 2 -166 2 -180 -1z m338 -59 c281 -47 495 -156 693 -353 299
-299 420 -694 345 -1127 -13 -72 -55 -194 -101 -289 -169 -356 -492 -608 -880
-690 -166 -35 -408 -27 -573 20 -220 62 -392 163 -553 324 -179 179 -292 389
-345 641 -25 118 -25 363 0 480 55 254 161 454 335 630 114 116 202 180 336
246 156 76 230 99 400 124 78 11 259 8 343 -6z"/>
<path d="M459 2143 c-1 -5 -2 -20 -3 -35 l-2 -28 108 0 108 0 1 -32 c0 -18 0
-131 0 -250 l0 -218 37 0 37 0 0 248 0 247 110 3 111 3 -4 34 -4 35 -249 0
c-137 0 -250 -3 -250 -7z"/>
<path d="M1120 1553 c9 -32 155 -444 182 -515 6 -17 18 -28 29 -28 11 0 19 2
19 4 0 4 94 272 158 454 l40 112 -37 0 c-37 0 -39 -2 -55 -47 -10 -27 -26 -70
-36 -98 -10 -27 -36 -97 -56 -154 -21 -57 -40 -97 -43 -90 -2 8 -26 77 -53
154 -27 77 -56 161 -65 188 -15 45 -18 47 -54 47 -36 0 -37 -1 -29 -27z"/>
<path d="M1891 988 c-10 -27 -201 -517 -208 -535 -4 -9 7 -13 35 -13 l39 0 32
85 33 85 101 0 102 0 34 -85 34 -85 39 0 c22 0 38 4 36 9 -1 5 -52 133 -113
285 -99 248 -112 276 -133 276 -14 0 -26 -8 -31 -22z m75 -221 l31 -82 -70 -3
c-38 -2 -71 -1 -73 1 -4 4 50 148 63 170 8 13 15 1 49 -86z"/>
</g>
</svg>
